<svg width="32" height="32" viewBox="0 0 32 32" fill="none" xmlns="http://www.w3.org/2000/svg">
<path d="M15.9053 7.60352C11.4609 7.60352 7.77832 11.2226 7.77832 15.7305C7.77832 20.2384 11.3974 23.8575 15.9053 23.8575C20.4132 23.8575 24.0323 20.1749 24.0323 15.7305C24.0323 11.2861 20.3497 7.60352 15.9053 7.60352ZM15.9053 20.9368C13.0482 20.9368 10.699 18.5876 10.699 15.7305C10.699 12.8734 13.0482 10.5241 15.9053 10.5241C18.7624 10.5241 21.1117 12.8734 21.1117 15.7305C21.1117 18.5876 18.7624 20.9368 15.9053 20.9368Z" fill="#BFA37C"/>
<path d="M24.3501 9.25383C25.367 9.25383 26.1913 8.42946 26.1913 7.41256C26.1913 6.39565 25.367 5.57129 24.3501 5.57129C23.3332 5.57129 22.5088 6.39565 22.5088 7.41256C22.5088 8.42946 23.3332 9.25383 24.3501 9.25383Z" fill="#BFA37C"/>
<path d="M29.1116 2.65103C27.4608 0.93674 25.1116 0.0478516 22.4449 0.0478516H9.36553C3.84172 0.0478516 0.15918 3.73039 0.15918 9.2542V22.2701C0.15918 25.0002 1.04807 27.3494 2.82585 29.0637C4.54013 30.7145 6.82585 31.5399 9.42902 31.5399H22.3814C25.1116 31.5399 27.3973 30.651 29.0481 29.0637C30.7624 27.4129 31.6512 25.0637 31.6512 22.3336V9.2542C31.6512 6.58753 30.7624 4.30182 29.1116 2.65103ZM28.8576 22.3336C28.8576 24.3018 28.1592 25.8891 27.0163 26.9685C25.8735 28.0479 24.2862 28.6193 22.3814 28.6193H9.42902C7.52426 28.6193 5.93696 28.0479 4.7941 26.9685C3.65124 25.8256 3.07981 24.2383 3.07981 22.2701V9.2542C3.07981 7.34944 3.65124 5.76214 4.7941 4.61928C5.87347 3.53991 7.52426 2.96849 9.42902 2.96849H22.5084C24.4131 2.96849 26.0005 3.53992 27.1433 4.68277C28.2227 5.82563 28.8576 7.41293 28.8576 9.2542V22.3336Z" fill="#BFA37C"/>
</svg>
