<svg width="32" height="32" viewBox="0 0 32 32" fill="none" xmlns="http://www.w3.org/2000/svg">
<path d="M16.0011 0.275391C7.36576 0.275391 0.364258 7.27498 0.364258 15.9122C0.364258 22.3143 4.21426 27.8147 9.72351 30.2334C9.67969 29.1405 9.71589 27.8312 9.99592 26.6431C10.2963 25.3731 12.0076 18.1227 12.0076 18.1227C12.0076 18.1227 11.5079 17.1245 11.5079 15.6487C11.5079 13.3322 12.8509 11.6019 14.5235 11.6019C15.9459 11.6019 16.6329 12.6699 16.6329 13.9482C16.6329 15.3782 15.7204 17.5162 15.2518 19.4968C14.8606 21.1561 16.0837 22.5092 17.7201 22.5092C20.6823 22.5092 22.6781 18.7043 22.6781 14.1958C22.6781 10.7687 20.3699 8.20335 16.1719 8.20335C11.4285 8.20335 8.47383 11.7403 8.47383 15.6913C8.47383 17.054 8.87578 18.0141 9.50507 18.7583C9.79399 19.0993 9.83463 19.2371 9.72986 19.6289C9.65493 19.9165 9.48284 20.61 9.41172 20.8843C9.30758 21.2812 8.98691 21.4228 8.62877 21.2761C6.44437 20.3845 5.42647 17.9919 5.42647 15.302C5.42647 10.8608 9.17233 5.53445 16.6018 5.53445C22.5708 5.53445 26.5002 9.85499 26.5002 14.4924C26.5002 20.6252 23.0909 25.208 18.0642 25.208C16.3758 25.208 14.7876 24.2949 14.2441 23.2598C14.2441 23.2598 13.336 26.8628 13.1442 27.5575C12.8128 28.764 12.1632 29.9686 11.5701 30.9071C12.9766 31.3224 14.4619 31.5485 16.0017 31.5485C24.6365 31.5485 31.6373 24.5489 31.6373 15.9129C31.6367 7.27498 24.6352 0.275391 16.0011 0.275391Z" fill="#BFA37C"/>
</svg>
