<svg width="264" height="46" viewBox="0 0 264 46" fill="none" xmlns="http://www.w3.org/2000/svg">
<path d="M101.934 45.8766C102.922 45.8458 103.766 45.8355 104.61 45.8355C105.453 45.8355 106.266 45.8458 107.244 45.8766C107.275 45.198 107.295 44.5297 107.295 43.8614H107.151C106.945 44.4372 106.513 44.9718 106.205 45.2392C105.855 45.5271 105.597 45.599 105.073 45.599C104.002 45.599 103.93 44.684 103.93 43.9128V40.8798C103.93 39.5431 104.157 38.9674 104.908 38.8234V38.6795C104.414 38.7103 103.941 38.7206 103.447 38.7206C102.963 38.7206 102.469 38.7103 101.975 38.6795V38.8234C102.727 38.9674 102.901 39.5945 102.901 40.8798V43.6764C102.901 44.9307 102.613 45.599 101.934 45.7327V45.8766Z" fill="white"/>
<path d="M114.541 46C116.393 46 118.029 44.6531 118.029 42.2678C118.029 39.9133 116.393 38.5561 114.541 38.5561C112.688 38.5561 111.052 39.9133 111.052 42.2678C111.052 44.6531 112.688 46 114.541 46ZM114.541 45.7841C113.337 45.7841 112.4 44.7354 112.4 42.2678C112.4 39.8207 113.337 38.772 114.541 38.772C115.745 38.772 116.691 39.8207 116.691 42.2678C116.691 44.7354 115.745 45.7841 114.541 45.7841Z" fill="white"/>
<path d="M127.965 38.7206C127.605 38.7206 127.235 38.7 126.813 38.6795V38.8234C127.533 38.9674 127.842 39.7385 127.842 40.8798V44.1287L123.582 38.6795C123.366 38.7 123.108 38.7103 122.831 38.7103C122.563 38.7103 122.275 38.7 121.956 38.6795V38.8234C122.779 38.9879 122.903 39.9544 122.903 40.9826V43.5941C122.903 44.8382 122.615 45.599 121.925 45.7327V45.8766C122.296 45.8458 122.676 45.8355 123.047 45.8355C123.427 45.8355 123.818 45.8458 124.199 45.8766V45.7327C123.458 45.5785 123.181 44.8176 123.181 43.5941V39.9955L127.852 45.9486H128.109V40.8798C128.109 39.7282 128.387 38.9674 129.066 38.8234V38.6795C128.696 38.7 128.336 38.7206 127.965 38.7206Z" fill="white"/>
<path d="M132.79 45.8766C133.14 45.8561 133.531 45.8561 133.922 45.8561C134.714 45.8561 135.537 45.8766 136.206 45.8766C138.161 45.8766 139.818 44.4886 139.818 42.3295C139.818 40.0469 138.192 38.6795 136.011 38.6795C135.568 38.6795 134.838 38.7 134.097 38.7C133.664 38.7 133.232 38.6898 132.821 38.6795V38.8234C133.582 38.9776 133.747 39.5431 133.747 40.8798V43.6764C133.747 44.9307 133.469 45.599 132.79 45.7327V45.8766ZM136.268 45.6401C135.969 45.6504 135.64 45.6401 135.486 45.6299C135.002 45.5887 134.786 45.1363 134.786 44.1802V38.9262C135.105 38.9262 135.558 38.916 135.939 38.916C137.523 38.916 138.48 39.9852 138.48 42.2986C138.48 44.6531 137.441 45.6093 136.268 45.6401Z" fill="white"/>
<path d="M147.547 46C149.399 46 151.035 44.6531 151.035 42.2678C151.035 39.9133 149.399 38.5561 147.547 38.5561C145.694 38.5561 144.058 39.9133 144.058 42.2678C144.058 44.6531 145.694 46 147.547 46ZM147.547 45.7841C146.343 45.7841 145.406 44.7354 145.406 42.2678C145.406 39.8207 146.343 38.772 147.547 38.772C148.751 38.772 149.697 39.8207 149.697 42.2678C149.697 44.7354 148.751 45.7841 147.547 45.7841Z" fill="white"/>
<path d="M160.971 38.7206C160.611 38.7206 160.241 38.7 159.819 38.6795V38.8234C160.539 38.9674 160.848 39.7385 160.848 40.8798V44.1287L156.588 38.6795C156.372 38.7 156.115 38.7103 155.837 38.7103C155.569 38.7103 155.281 38.7 154.962 38.6795V38.8234C155.785 38.9879 155.909 39.9544 155.909 40.9826V43.5941C155.909 44.8382 155.621 45.599 154.931 45.7327V45.8766C155.302 45.8458 155.682 45.8355 156.053 45.8355C156.434 45.8355 156.825 45.8458 157.205 45.8766V45.7327C156.464 45.5785 156.187 44.8176 156.187 43.5941V39.9955L160.858 45.9486H161.115V40.8798C161.115 39.7282 161.393 38.9674 162.072 38.8234V38.6795C161.702 38.7 161.342 38.7206 160.971 38.7206Z" fill="white"/>
<path d="M22.5773 0.426073H3.78505L3.21559 6.78168H3.71387C4.99516 3.26657 6.63237 1.24272 9.97796 1.24272C10.6186 1.24272 11.2948 1.27822 11.9711 1.27822L11.9355 17.6821C11.9355 21.6233 11.4728 24.4283 8.26958 24.8188V25.2804C10.0136 25.1384 11.5796 25.1029 13.1812 25.1029C14.7472 25.1029 16.3488 25.1384 18.0572 25.2804V24.8188C14.854 24.4283 14.3913 21.5878 14.3913 17.6821L14.3557 1.27822C15.0319 1.27822 15.7082 1.24272 16.3488 1.24272C19.6944 1.24272 21.3316 3.26657 22.6129 6.78168H23.1468L22.5773 0.426073Z" fill="white"/>
<path d="M42.7399 18.8538L35.0165 0.0355057H34.4827L26.261 19.0668C24.8018 22.4754 23.5917 24.2862 21.8477 24.8188V25.2804C22.8443 25.1384 24.09 25.0674 25.3713 25.0674C26.6881 25.0674 28.1474 25.1384 29.4999 25.2804V24.8188C26.3322 24.2507 26.261 21.7653 27.7559 18.3567L28.4321 16.7589H39.1807L40.1773 19.3154C41.423 22.4044 41.0671 24.1442 38.291 24.8188V25.2804C39.7858 25.1384 41.3518 25.1029 42.9178 25.1029C44.4483 25.1029 45.9431 25.1384 47.3312 25.2804V24.8188C44.8754 24.1797 44.0924 22.1204 42.7399 18.8538ZM28.788 15.9423L34.02 3.55062L38.8604 15.9423H28.788Z" fill="white"/>
<path d="M55.9346 25.7065C61.1665 25.7065 64.085 22.866 64.085 19.1733C64.085 11.5395 51.8416 12.3917 51.8416 5.57447C51.8416 2.69847 53.7635 0.710123 56.4684 0.710123C59.1022 0.710123 61.0242 3.16005 62.3766 6.95921H62.9105C62.9461 5.04188 62.9105 3.23106 62.8037 1.49126C61.0953 0.461579 58.7107 0 57.0023 0C53.4432 0 49.5637 2.09486 49.5637 6.46213C49.5637 14.4155 61.5936 13.6344 61.5936 20.203C61.5936 22.653 59.7429 24.9964 56.3617 24.9964C52.6602 24.9964 50.7382 22.3334 49.5637 18.3567H49.0654C49.0298 20.4161 49.101 22.3334 49.2078 24.1797C50.5247 25.0674 53.194 25.7065 55.9346 25.7065Z" fill="white"/>
<path d="M86.4264 0.426073H67.6341L67.0647 6.78168H67.563C68.8443 3.26657 70.4815 1.24272 73.8271 1.24272C74.4677 1.24272 75.1439 1.27822 75.8202 1.27822L75.7846 17.6821C75.7846 21.6233 75.3219 24.4283 72.1187 24.8188V25.2804C73.8626 25.1384 75.4287 25.1029 77.0303 25.1029C78.5963 25.1029 80.1979 25.1384 81.9063 25.2804V24.8188C78.7031 24.4283 78.2404 21.5878 78.2404 17.6821L78.2048 1.27822C78.881 1.27822 79.5573 1.24272 80.1979 1.24272C83.5435 1.24272 85.1807 3.26657 86.462 6.78168H86.9959L86.4264 0.426073Z" fill="white"/>
<path d="M106.957 18.8183C106.138 21.8363 104.43 24.0377 101.974 24.2507C100.8 24.3572 100.088 24.3928 98.6996 24.3928C95.8167 24.3928 95.1405 22.2624 95.1405 18.4632V12.7112H99.5538C101.725 12.7112 102.935 14.5575 103.291 16.6169H103.789C103.718 15.4452 103.682 13.8119 103.682 12.2141C103.682 10.6164 103.718 9.01857 103.789 7.88237H103.291C102.935 9.97724 101.725 11.8946 99.5538 11.8946H95.1405V1.38474C96.493 1.27822 98.1658 1.27822 99.5538 1.27822C103.327 1.27822 104.999 2.2724 106.352 6.56865H106.85C106.85 4.50929 106.814 2.48543 106.743 0.426073C102.828 0.497087 99.1267 0.532592 96.7777 0.532592C93.8948 0.532592 91.8661 0.497087 89.5882 0.426073V0.887654C92.6135 1.34923 92.7915 3.58613 92.7915 7.27877V18.4277C92.7915 22.4754 92.044 24.4283 89.4814 24.8188V25.2804C93.0762 25.2094 96.2438 25.1739 99.1267 25.1739C101.867 25.1739 104.323 25.2094 107.242 25.2804C107.384 23.15 107.455 20.9487 107.491 18.8183H106.957Z" fill="white"/>
<path d="M144.543 18.4277V7.27877C144.543 3.16005 145.041 1.27822 147.71 0.887654V0.426073C146.643 0.497087 145.539 0.532592 144.614 0.532592C143.653 0.532592 142.906 0.497087 142.123 0.426073L133.331 21.7298L123.437 0.426073C122.618 0.497087 121.693 0.532592 120.697 0.532592C119.736 0.532592 118.739 0.497087 117.885 0.426073V0.887654C120.412 1.34923 121.088 3.40859 121.088 6.74618V17.5046C121.088 21.4812 120.269 24.4638 117.6 24.8188V25.2804C118.81 25.1384 120.163 25.1029 121.586 25.1029C122.974 25.1029 124.398 25.1384 125.786 25.2804V24.8188C123.046 24.4638 122.085 21.4812 122.085 17.5046V3.51511L132.299 25.3869H132.798L142.336 2.876V18.5697C142.336 22.4754 141.553 24.4638 139.382 24.8188V25.2804C140.663 25.1384 141.909 25.1029 143.297 25.1029C144.65 25.1029 146.144 25.1384 147.817 25.2804V24.8188C145.326 24.4638 144.543 22.4399 144.543 18.4277Z" fill="white"/>
<path d="M162.409 25.7065C168.78 25.7065 174.119 20.7711 174.119 12.8532C174.119 4.97087 168.78 0 162.409 0C156.003 0 150.735 4.97087 150.735 12.8532C150.735 20.7711 156.003 25.7065 162.409 25.7065ZM162.409 24.9609C158.067 24.9609 153.796 21.3037 153.796 12.8532C153.796 4.40277 158.067 0.745629 162.409 0.745629C166.752 0.745629 171.023 4.40277 171.023 12.8532C171.023 21.3037 166.752 24.9609 162.409 24.9609Z" fill="white"/>
<path d="M177 25.2804C178.104 25.2449 179.349 25.2449 180.595 25.2449C183.158 25.2449 185.863 25.2804 187.713 25.2804C194.618 25.2804 199.992 20.132 199.992 12.8887C199.992 5.39694 195.081 0.426073 187.251 0.426073C185.257 0.426073 183.407 0.461579 181.592 0.461579C180.132 0.461579 178.744 0.461579 177.107 0.426073V0.887654C180.097 1.31373 180.31 3.51511 180.31 7.27877V18.4277C180.31 22.4754 179.527 24.4283 177 24.8188V25.2804ZM187.962 24.4283C187.179 24.4638 186.04 24.4283 185.293 24.3572C183.407 24.1797 182.659 22.3689 182.659 19.0668V1.34923C184.012 1.31373 185.507 1.27822 186.93 1.27822C193.266 1.27822 196.896 5.07739 196.896 12.8887C196.896 20.5226 192.767 24.3217 187.962 24.4283Z" fill="white"/>
<path d="M220.37 18.8183C219.551 21.8363 217.843 24.0377 215.387 24.2507C214.212 24.3572 213.501 24.3928 212.113 24.3928C209.23 24.3928 208.553 22.2624 208.553 18.4632V12.7112H212.967C215.138 12.7112 216.348 14.5575 216.704 16.6169H217.202C217.131 15.4452 217.095 13.8119 217.095 12.2141C217.095 10.6164 217.131 9.01857 217.202 7.88237H216.704C216.348 9.97724 215.138 11.8946 212.967 11.8946H208.553V1.38474C209.906 1.27822 211.579 1.27822 212.967 1.27822C216.739 1.27822 218.412 2.2724 219.765 6.56865H220.263C220.263 4.50929 220.227 2.48543 220.156 0.426073C216.241 0.497087 212.54 0.532592 210.191 0.532592C207.308 0.532592 205.279 0.497087 203.001 0.426073V0.887654C206.026 1.34923 206.204 3.58613 206.204 7.27877V18.4277C206.204 22.4754 205.457 24.4283 202.894 24.8188V25.2804C206.489 25.2094 209.657 25.1739 212.54 25.1739C215.28 25.1739 217.736 25.2094 220.655 25.2804C220.797 23.15 220.868 20.9487 220.904 18.8183H220.37Z" fill="white"/>
<path d="M224.201 25.2804C227.795 25.2094 230.963 25.1739 233.881 25.1739C236.373 25.1739 238.829 25.2094 241.712 25.2804C241.818 23.008 241.89 20.8066 241.925 18.5342H241.427C240.893 20.5936 239.683 22.3689 238.508 23.2211C237.227 24.2152 236.48 24.3572 233.632 24.3572C230.607 24.3572 229.931 22.1914 229.931 19.1378V7.27877C229.931 2.876 230.5 1.27822 233.134 0.887654V0.426073C231.532 0.532592 230.18 0.603604 228.756 0.603604C227.368 0.603604 225.945 0.532592 224.379 0.426073V0.887654C227.404 1.31373 227.582 3.55062 227.582 7.27877V18.4277C227.582 22.4754 226.799 24.4283 224.201 24.8188V25.2804Z" fill="white"/>
<path d="M251.479 25.7065C256.711 25.7065 259.629 22.866 259.629 19.1733C259.629 11.5395 247.386 12.3917 247.386 5.57447C247.386 2.69847 249.308 0.710123 252.013 0.710123C254.647 0.710123 256.569 3.16005 257.921 6.95921H258.455C258.49 5.04188 258.455 3.23106 258.348 1.49126C256.64 0.461579 254.255 0 252.547 0C248.988 0 245.108 2.09486 245.108 6.46213C245.108 14.4155 257.138 13.6344 257.138 20.203C257.138 22.653 255.287 24.9964 251.906 24.9964C248.205 24.9964 246.283 22.3334 245.108 18.3567H244.61C244.574 20.4161 244.645 22.3334 244.752 24.1797C246.069 25.0674 248.738 25.7065 251.479 25.7065Z" fill="white"/>
<path d="M0 41.923H57.715V43.0326H0V41.923Z" fill="white"/>
<path d="M205.642 41.923H264V43.0326H205.642V41.923Z" fill="white"/>
</svg>
